<?xml version="1.0" encoding="utf-8"?>
<!-- Generator: Adobe Illustrator 22.1.0, SVG Export Plug-In . SVG Version: 6.00 Build 0)  -->
<svg version="1.1" id="Слой_1" xmlns="http://www.w3.org/2000/svg" xmlns:xlink="http://www.w3.org/1999/xlink" x="0px" y="0px"
	 viewBox="0 0 183.1 152.9" style="enable-background:new 0 0 183.1 152.9;" xml:space="preserve">
<style type="text/css">
	.st0{clip-path:url(#SVGID_2_);fill:#242946;}
	.st1{clip-path:url(#SVGID_2_);}
	.st2{fill:none;stroke:#2F385B;stroke-width:0.5;stroke-miterlimit:10;}
	.st3{fill:#2F385B;}
	.st4{fill:none;stroke:#505F96;stroke-width:0.5;stroke-miterlimit:10;}
	.st5{fill:#6F8BC9;}
</style>
<g>
	<defs>
		<rect id="SVGID_1_" x="0" width="183.1" height="152.9"/>
	</defs>
	<clipPath id="SVGID_2_">
		<use xlink:href="#SVGID_1_"  style="overflow:visible;"/>
	</clipPath>
	<rect x="0" class="st0" width="183.1" height="152.9"/>
	<g class="st1">
		<g>
			<polyline class="st2" points="91.5,28.2 83.1,32.3 90.8,44 			"/>
			<polyline class="st2" points="91.5,0 75.8,8.7 91.3,9.4 			"/>
			<polyline class="st2" points="91.5,19.3 75.8,8.7 75.9,9.3 83.2,33 63.8,35.8 72.9,50 90.7,44 77.8,71.1 91.4,64.7 			"/>
			<line class="st2" x1="91.1" y1="76.4" x2="77.8" y2="71.1"/>
			<polyline class="st2" points="52.2,76.6 49.8,54.8 63.8,35.8 			"/>
			<polyline class="st2" points="52.1,-0.9 52.8,4.2 44.5,0.2 52.8,4.2 77.5,-5.3 52.8,4.2 75.8,8.7 75.8,8.7 63.8,35.8 43,44.7 
				42.1,33.3 57.6,24.4 63.8,35.8 			"/>
			<polygon class="st2" points="43,44.7 49.8,54.8 18.1,71 24.8,53.5 			"/>
			<polyline class="st2" points="49.8,54.8 24.8,53.5 15.8,38.5 9.2,60.5 24.8,53.5 			"/>
			<line class="st2" x1="44.5" y1="0.2" x2="37.6" y2="14.2"/>
			<line class="st2" x1="8.1" y1="9.8" x2="31.8" y2="0"/>
			<polyline class="st2" points="-0.4,0.3 -0.3,0.2 8.1,9.8 7.9,24.7 23.8,14.5 15.8,38.5 42.1,33.3 37.6,14.2 23.8,14.5 31.8,0 
				37.6,14.2 52.8,4.2 57.6,24.4 75.8,8.7 			"/>
			<polyline class="st2" points="23.8,14.5 8.4,9.8 -0.2,9.4 			"/>
			<polyline class="st2" points="77,-4 72.2,-25.2 52.9,4 			"/>
			<line class="st2" x1="53" y1="4.3" x2="63" y2="-39.3"/>
			<polyline class="st2" points="78.1,70.8 72.9,49.7 52.6,80.9 			"/>
			<polyline class="st2" points="0,76.4 18.1,71 31.8,76.3 44.5,76.4 49.8,54.8 			"/>
			<polyline class="st2" points="18.1,71 9.2,60.5 -0.1,76.5 			"/>
			<polygon class="st2" points="-0.2,43.8 7.9,24.7 15.8,38.5 			"/>
			<polyline class="st2" points="-1.3,18.3 7.6,24.6 -0.8,28.7 			"/>
			<polyline class="st2" points="-0.2,43.8 9.2,60.5 -0.3,64.8 			"/>
			<line class="st2" x1="53.1" y1="80.4" x2="79.1" y2="70.5"/>
		</g>
		<g>
			<circle class="st3" cx="7.9" cy="9.5" r="1.1"/>
			<circle class="st3" cx="7.6" cy="24.6" r="1.1"/>
			<circle class="st3" cx="15.7" cy="38.5" r="1.1"/>
			<path class="st3" d="M-0.1,42.7c0.6,0,1.1,0.5,1.1,1.1c0,0.6-0.5,1.1-1.1,1.1"/>
			<circle class="st3" cx="24.7" cy="53.4" r="1.1"/>
			<circle class="st3" cx="9.4" cy="60.6" r="1.1"/>
			<circle class="st3" cx="17.9" cy="71" r="1.1"/>
			<path class="st3" d="M32.3,0c0,0.6-0.5,1.1-1.1,1.1S30.2,0.6,30.2,0"/>
			<path class="st3" d="M30.2,76.5c0-0.6,0.5-1.1,1.1-1.1s1.1,0.5,1.1,1.1"/>
			<circle class="st3" cx="23.8" cy="14.5" r="1.1"/>
			<circle class="st3" cx="37.5" cy="14.2" r="1.1"/>
			<circle class="st3" cx="57.8" cy="24.3" r="1.1"/>
			<circle class="st3" cx="63.8" cy="35.9" r="1.1"/>
			<circle class="st3" cx="83.3" cy="32.5" r="1.1"/>
			<circle class="st3" cx="73" cy="49.9" r="1.1"/>
			<circle class="st3" cx="77.9" cy="70.8" r="1.1"/>
			<circle class="st3" cx="41.9" cy="33" r="1.1"/>
			<circle class="st3" cx="43" cy="44.8" r="1.1"/>
			<circle class="st3" cx="49.9" cy="54.8" r="1.1"/>
			<circle class="st3" cx="52.9" cy="4.1" r="1.1"/>
			<circle class="st3" cx="75.9" cy="8.8" r="1.1"/>
			<path class="st3" d="M91.3,44.9c-0.6,0-1.1-0.5-1.1-1.1c0-0.6,0.5-1.1,1.1-1.1"/>
		</g>
	</g>
	<g class="st1">
		<g>
			<polyline class="st2" points="183,28.2 174.5,32.3 182.3,44 			"/>
			<polyline class="st2" points="182.9,0 167.2,8.7 182.8,9.4 			"/>
			<polyline class="st2" points="182.9,19.3 167.2,8.7 167.4,9.3 174.7,33 155.2,35.8 164.4,50 182.2,44 169.2,71.1 182.9,64.7 			
				"/>
			<line class="st2" x1="183" y1="76.4" x2="169.2" y2="71.1"/>
			<polyline class="st2" points="143.7,76.6 141.2,54.8 155.2,35.8 			"/>
			<polyline class="st2" points="143.6,-0.9 144.2,4.2 135.9,0.2 144.2,4.2 169,-5.3 144.2,4.2 167.2,8.7 167.2,8.7 155.2,35.8 
				134.4,44.7 133.6,33.3 149.1,24.4 155.2,35.8 			"/>
			<polygon class="st2" points="134.4,44.7 141.2,54.8 109.6,71 116.3,53.5 			"/>
			<polyline class="st2" points="141.2,54.8 116.3,53.5 107.3,38.5 100.6,60.5 116.3,53.5 			"/>
			<line class="st2" x1="135.9" y1="0.2" x2="129.1" y2="14.2"/>
			<line class="st2" x1="99.6" y1="9.8" x2="123.3" y2="0"/>
			<polyline class="st2" points="91,0.3 91.1,0.2 99.6,9.8 99.3,24.7 115.3,14.5 107.3,38.5 133.6,33.3 129.1,14.2 115.3,14.5 
				123.3,0 129.1,14.2 144.2,4.2 149.1,24.4 167.2,8.7 			"/>
			<polyline class="st2" points="115.3,14.5 99.9,9.8 91.3,9.4 			"/>
			<polyline class="st2" points="168.5,-4 163.6,-25.2 144.4,4 			"/>
			<line class="st2" x1="144.5" y1="4.3" x2="154.5" y2="-39.3"/>
			<polyline class="st2" points="169.6,70.9 164.4,49.7 144.1,81 			"/>
			<polyline class="st2" points="91.5,76.4 109.6,71 123.3,76.3 136,76.4 141.3,54.8 			"/>
			<polyline class="st2" points="109.6,71 100.6,60.5 91.4,76.5 			"/>
			<polygon class="st2" points="91.3,43.8 99.3,24.7 107.3,38.5 			"/>
			<polyline class="st2" points="90.1,18.3 99.1,24.6 90.7,28.7 			"/>
			<polyline class="st2" points="91.3,43.8 100.6,60.5 91.2,64.8 			"/>
			<line class="st2" x1="144.6" y1="80.4" x2="170.6" y2="70.5"/>
		</g>
		<g>
			<circle class="st3" cx="99.4" cy="9.5" r="1.1"/>
			<circle class="st3" cx="99" cy="24.6" r="1.1"/>
			<circle class="st3" cx="107.2" cy="38.5" r="1.1"/>
			<path class="st3" d="M91.3,42.7c0.6,0,1.1,0.5,1.1,1.1c0,0.6-0.5,1.1-1.1,1.1"/>
			<circle class="st3" cx="116.1" cy="53.4" r="1.1"/>
			<circle class="st3" cx="100.9" cy="60.7" r="1.1"/>
			<circle class="st3" cx="109.4" cy="71" r="1.1"/>
			<path class="st3" d="M123.8,0c0,0.6-0.5,1.1-1.1,1.1c-0.6,0-1.1-0.5-1.1-1.1"/>
			<path class="st3" d="M121.6,76.5c0-0.6,0.5-1.1,1.1-1.1c0.6,0,1.1,0.5,1.1,1.1"/>
			<circle class="st3" cx="115.3" cy="14.5" r="1.1"/>
			<circle class="st3" cx="129" cy="14.2" r="1.1"/>
			<circle class="st3" cx="149.3" cy="24.3" r="1.1"/>
			<circle class="st3" cx="155.3" cy="35.9" r="1.1"/>
			<circle class="st3" cx="174.8" cy="32.5" r="1.1"/>
			<circle class="st3" cx="164.4" cy="49.9" r="1.1"/>
			<circle class="st3" cx="169.4" cy="70.8" r="1.1"/>
			<circle class="st3" cx="133.4" cy="33" r="1.1"/>
			<circle class="st3" cx="134.4" cy="44.8" r="1.1"/>
			<circle class="st3" cx="141.4" cy="54.8" r="1.1"/>
			<circle class="st3" cx="144.4" cy="4.1" r="1.1"/>
			<circle class="st3" cx="167.4" cy="8.8" r="1.1"/>
			<path class="st3" d="M182.8,44.9c-0.6,0-1.1-0.5-1.1-1.1c0-0.6,0.5-1.1,1.1-1.1"/>
		</g>
	</g>
	<g class="st1">
		<g>
			<polyline class="st2" points="91.5,104.6 83.1,108.7 90.8,120.3 			"/>
			<polyline class="st2" points="91.5,76.4 75.8,85.1 91.3,85.8 			"/>
			<polyline class="st2" points="91.5,95.7 75.8,85.1 75.9,85.7 83.2,109.4 63.8,112.2 72.9,126.4 90.7,120.4 77.8,147.5 91.4,141 
							"/>
			<line class="st2" x1="91.1" y1="152.8" x2="77.8" y2="147.5"/>
			<polyline class="st2" points="52.2,152.9 49.8,131.2 63.8,112.2 			"/>
			<polyline class="st2" points="52.1,75.5 52.8,80.6 44.5,76.6 52.8,80.6 77.5,71.1 52.8,80.6 75.8,85.1 75.8,85.1 63.8,112.2 
				43,121 42.1,109.7 57.6,100.7 63.8,112.2 			"/>
			<polygon class="st2" points="43,121 49.8,131.2 18.1,147.3 24.8,129.9 			"/>
			<polyline class="st2" points="49.8,131.2 24.8,129.9 15.8,114.9 9.2,136.9 24.8,129.9 			"/>
			<line class="st2" x1="44.5" y1="76.6" x2="37.6" y2="90.6"/>
			<line class="st2" x1="8.1" y1="86.2" x2="31.8" y2="76.4"/>
			<polyline class="st2" points="-0.4,76.6 -0.3,76.6 8.1,86.2 7.9,101.1 23.8,90.9 15.8,114.9 42.1,109.7 37.6,90.6 23.8,90.9 
				31.8,76.4 37.6,90.6 52.8,80.6 57.6,100.7 75.8,85.1 			"/>
			<polyline class="st2" points="23.8,90.9 8.4,86.2 -0.2,85.8 			"/>
			<line class="st2" x1="53.3" y1="155.8" x2="63.8" y2="112.2"/>
			<line class="st2" x1="53" y1="80.7" x2="63" y2="37"/>
			<polyline class="st2" points="78.1,147.2 72.9,126.1 52.6,157.3 			"/>
			<polyline class="st2" points="0,152.7 18.1,147.3 31.8,152.7 44.5,152.8 49.8,131.2 			"/>
			<polyline class="st2" points="18.1,147.3 9.2,136.9 -0.1,152.9 			"/>
			<polygon class="st2" points="-0.2,120.2 7.9,101.1 15.8,114.9 			"/>
			<polyline class="st2" points="-1.3,94.7 7.6,100.9 -0.8,105.1 			"/>
			<polyline class="st2" points="-0.2,120.2 9.2,136.9 -0.3,141.2 			"/>
			<line class="st2" x1="53.1" y1="156.8" x2="79.1" y2="146.8"/>
		</g>
		<g>
			<circle class="st3" cx="7.9" cy="85.9" r="1.1"/>
			<circle class="st3" cx="7.6" cy="100.9" r="1.1"/>
			<circle class="st3" cx="15.7" cy="114.9" r="1.1"/>
			<path class="st3" d="M-0.1,119.1c0.6,0,1.1,0.5,1.1,1.1c0,0.6-0.5,1.1-1.1,1.1"/>
			<circle class="st3" cx="24.7" cy="129.8" r="1.1"/>
			<circle class="st3" cx="9.4" cy="137" r="1.1"/>
			<circle class="st3" cx="17.9" cy="147.4" r="1.1"/>
			<path class="st3" d="M32.3,76.5c0,0.6-0.5,1.1-1.1,1.1s-1.1-0.5-1.1-1.1"/>
			<path class="st3" d="M30.2,152.9c0-0.6,0.5-1.1,1.1-1.1s1.1,0.5,1.1,1.1"/>
			<circle class="st3" cx="23.8" cy="90.9" r="1.1"/>
			<circle class="st3" cx="37.5" cy="90.6" r="1.1"/>
			<circle class="st3" cx="57.8" cy="100.6" r="1.1"/>
			<circle class="st3" cx="63.8" cy="112.2" r="1.1"/>
			<circle class="st3" cx="83.3" cy="108.9" r="1.1"/>
			<circle class="st3" cx="73" cy="126.2" r="1.1"/>
			<circle class="st3" cx="77.9" cy="147.2" r="1.1"/>
			<circle class="st3" cx="41.9" cy="109.4" r="1.1"/>
			<circle class="st3" cx="43" cy="121.2" r="1.1"/>
			<circle class="st3" cx="49.9" cy="131.1" r="1.1"/>
			<circle class="st3" cx="52.9" cy="80.5" r="1.1"/>
			<circle class="st3" cx="75.9" cy="85.2" r="1.1"/>
			<path class="st3" d="M91.3,121.2c-0.6,0-1.1-0.5-1.1-1.1c0-0.6,0.5-1.1,1.1-1.1"/>
		</g>
	</g>
	<g class="st1">
		<g>
			<polyline class="st2" points="183,104.6 174.5,108.7 182.3,120.3 			"/>
			<polyline class="st2" points="183.2,76.3 167.2,85.1 182.8,85.8 			"/>
			<polyline class="st2" points="182.9,95.7 167.2,85.1 167.4,85.7 174.7,109.4 155.2,112.2 164.4,126.4 182.2,120.4 169.2,147.5 
				182.9,141 			"/>
			<line class="st2" x1="182.6" y1="152.8" x2="169.2" y2="147.5"/>
			<polyline class="st2" points="143.7,152.9 141.2,131.2 155.2,112.2 			"/>
			<polyline class="st2" points="143.6,75.5 144.2,80.6 135.9,76.6 144.2,80.6 169,71.1 144.2,80.6 167.2,85.1 167.2,85.1 
				155.2,112.2 134.4,121 133.6,109.7 149.1,100.7 155.2,112.2 			"/>
			<polygon class="st2" points="134.4,121 141.2,131.2 109.6,147.4 116.3,129.9 			"/>
			<polyline class="st2" points="141.2,131.2 116.3,129.9 107.3,114.9 100.6,136.9 116.3,129.9 			"/>
			<line class="st2" x1="135.9" y1="76.6" x2="129.1" y2="90.6"/>
			<line class="st2" x1="99.6" y1="86.2" x2="123.3" y2="76.4"/>
			<polyline class="st2" points="91,76.6 91.1,76.6 99.6,86.2 99.3,101.1 115.3,90.9 107.3,114.9 133.6,109.7 129.1,90.6 
				115.3,90.9 123.3,76.4 129.1,90.6 144.2,80.6 149.1,100.7 167.2,85.1 			"/>
			<polyline class="st2" points="115.3,90.9 99.9,86.2 91.3,85.8 			"/>
			<line class="st2" x1="144.8" y1="155.8" x2="155.2" y2="112.2"/>
			<line class="st2" x1="144.5" y1="80.7" x2="154.5" y2="37"/>
			<polyline class="st2" points="169.6,147.2 164.4,126.1 144.1,157.3 			"/>
			<polyline class="st2" points="91.5,152.7 109.6,147.4 123.3,152.7 136,152.8 141.3,131.2 			"/>
			<polyline class="st2" points="109.6,147.4 100.6,136.9 91.4,152.9 			"/>
			<polygon class="st2" points="91.3,120.2 99.3,101.1 107.3,114.9 			"/>
			<polyline class="st2" points="90.1,94.7 99.1,100.9 90.7,105.1 			"/>
			<polyline class="st2" points="91.3,120.2 100.6,136.9 91.2,141.2 			"/>
			<line class="st2" x1="144.6" y1="156.8" x2="170.6" y2="146.8"/>
		</g>
		<g>
			<circle class="st3" cx="99.4" cy="85.9" r="1.1"/>
			<circle class="st3" cx="99" cy="100.9" r="1.1"/>
			<circle class="st3" cx="107.2" cy="114.9" r="1.1"/>
			<path class="st3" d="M91.3,119.1c0.6,0,1.1,0.5,1.1,1.1c0,0.6-0.5,1.1-1.1,1.1"/>
			<circle class="st3" cx="116.1" cy="129.8" r="1.1"/>
			<circle class="st3" cx="100.9" cy="137" r="1.1"/>
			<circle class="st3" cx="109.4" cy="147.4" r="1.1"/>
			<path class="st3" d="M123.8,76.5c0,0.6-0.5,1.1-1.1,1.1c-0.6,0-1.1-0.5-1.1-1.1"/>
			<path class="st3" d="M121.6,152.9c0-0.6,0.5-1.1,1.1-1.1c0.6,0,1.1,0.5,1.1,1.1"/>
			<circle class="st3" cx="115.3" cy="90.9" r="1.1"/>
			<circle class="st3" cx="129" cy="90.6" r="1.1"/>
			<circle class="st3" cx="149.3" cy="100.6" r="1.1"/>
			<circle class="st3" cx="155.3" cy="112.2" r="1.1"/>
			<circle class="st3" cx="174.8" cy="108.9" r="1.1"/>
			<circle class="st3" cx="164.4" cy="126.2" r="1.1"/>
			<circle class="st3" cx="169.4" cy="147.2" r="1.1"/>
			<circle class="st3" cx="133.4" cy="109.4" r="1.1"/>
			<circle class="st3" cx="134.4" cy="121.2" r="1.1"/>
			<circle class="st3" cx="141.4" cy="131.1" r="1.1"/>
			<circle class="st3" cx="144.4" cy="80.5" r="1.1"/>
			<circle class="st3" cx="167.4" cy="85.2" r="1.1"/>
			<path class="st3" d="M182.8,121.2c-0.6,0-1.1-0.5-1.1-1.1c0-0.6,0.5-1.1,1.1-1.1"/>
		</g>
	</g>
	<g class="st1">
		<g>
			<polyline class="st4" points="183.5,56.1 166.6,64.3 182.2,87.7 			"/>
			<polyline class="st4" points="183.4,-0.2 152,17.1 183.1,18.6 			"/>
			<polyline class="st4" points="183.4,38.4 152,17.1 152.3,18.3 167,65.8 128,71.4 146.3,99.8 181.9,87.8 156,142.1 183.3,129.1 
							"/>
			<line class="st4" x1="182.7" y1="152.6" x2="156" y2="142.1"/>
			<polyline class="st4" points="104.9,152.9 100,109.4 128,71.4 			"/>
			<polyline class="st4" points="104.7,-2.2 106,8.1 89.3,0.1 106,8.1 155.5,-10.9 106,8.1 152,17.1 152,17.1 128,71.4 86.3,89.1 
				84.6,66.4 115.6,48.4 128,71.4 			"/>
			<polygon class="st4" points="86.3,89.1 100,109.4 36.6,141.8 50,106.8 			"/>
			<polyline class="st4" points="100,109.4 50,106.8 32,76.8 18.6,120.8 50,106.8 			"/>
			<line class="st4" x1="89.3" y1="0.1" x2="75.6" y2="28.1"/>
			<line class="st4" x1="16.5" y1="19.3" x2="64" y2="-0.2"/>
			<polyline class="st4" points="-0.5,0.2 -0.4,0.1 16.5,19.3 16,49.1 48,28.8 32,76.8 84.6,66.4 75.6,28.1 48,28.8 64,-0.2 
				75.6,28.1 106,8.1 115.6,48.4 152,17.1 			"/>
			<polyline class="st4" points="48,28.8 17.1,19.3 0,18.5 			"/>
			<line class="st4" x1="107.1" y1="158.6" x2="128" y2="71.4"/>
			<polyline class="st4" points="154.5,-8.4 144.8,-50.7 106.3,7.6 			"/>
			<line class="st4" x1="106.5" y1="8.3" x2="126.5" y2="-79.1"/>
			<polyline class="st4" points="156.6,141.5 146.3,99.3 105.6,161.7 			"/>
			<polyline class="st4" points="0.4,152.6 36.6,141.8 64,152.4 89.4,152.6 100,109.5 			"/>
			<polyline class="st4" points="36.6,141.8 18.6,120.8 0.1,152.8 			"/>
			<polygon class="st4" points="0,87.4 16,49.1 32,76.8 			"/>
			<polyline class="st4" points="-2.4,36.4 15.5,48.8 -1.3,57.2 			"/>
			<polyline class="st4" points="0,87.4 18.6,120.8 -0.3,129.4 			"/>
			<line class="st4" x1="106.7" y1="160.7" x2="158.7" y2="140.7"/>
		</g>
		<g>
			<circle class="st5" cx="16.2" cy="18.8" r="2.1"/>
			<circle class="st5" cx="15.5" cy="48.8" r="2.1"/>
			<circle class="st5" cx="31.8" cy="76.8" r="2.1"/>
			<path class="st5" d="M0,85.2c1.2,0,2.1,1,2.1,2.1s-1,2.1-2.1,2.1"/>
			<circle class="st5" cx="49.7" cy="106.6" r="2.1"/>
			<circle class="st5" cx="19.1" cy="121.1" r="2.1"/>
			<circle class="st5" cx="36.2" cy="141.8" r="2.1"/>
			<path class="st5" d="M64.9,0c0,1.2-1,2.1-2.1,2.1c-1.2,0-2.1-1-2.1-2.1"/>
			<path class="st5" d="M60.7,152.9c0-1.2,1-2.1,2.1-2.1c1.2,0,2.1,1,2.1,2.1"/>
			<circle class="st5" cx="48" cy="28.7" r="2.1"/>
			<circle class="st5" cx="75.4" cy="28.1" r="2.1"/>
			<circle class="st5" cx="116" cy="48.3" r="2.1"/>
			<circle class="st5" cx="128.1" cy="71.4" r="2.1"/>
			<circle class="st5" cx="167.1" cy="64.8" r="2.1"/>
			<circle class="st5" cx="146.4" cy="99.5" r="2.1"/>
			<circle class="st5" cx="156.3" cy="141.4" r="2.1"/>
			<circle class="st5" cx="84.3" cy="65.7" r="2.1"/>
			<circle class="st5" cx="86.3" cy="89.3" r="2.1"/>
			<circle class="st5" cx="100.2" cy="109.3" r="2.1"/>
			<circle class="st5" cx="106.2" cy="7.9" r="2.1"/>
			<circle class="st5" cx="152.3" cy="17.3" r="2.1"/>
			<path class="st5" d="M183.1,89.5c-1.2,0-2.1-1-2.1-2.1c0-1.2,1-2.1,2.1-2.1"/>
		</g>
	</g>
</g>
</svg>
